<svg version="1.1" id="Layer_1" xmlns="http://www.w3.org/2000/svg" xmlns:xlink="http://www.w3.org/1999/xlink" x="0px" y="0px" width="16px" height="16px" viewBox="0 0 16 16" enable-background="new 0 0 16 16" xml:space="preserve">
  <g id="main">
    <g id="icon">
      <path d="M6.744,0.1383L6.01,0.2504L5.3,0.4328L4.62,0.6816L3.973,0.9934L3.363,1.364L2.793,1.79L2.268,2.268L1.79,2.793L1.364,3.363L0.9934,3.973L0.6816,4.62L0.4328,5.3L0.2504,6.01L0.1383,6.744L0.1,7.501L0.1383,8.258L0.2504,8.993L0.4328,9.702L0.6816,10.38L0.9934,11.03L1.364,11.64L1.79,12.21L2.268,12.73L2.793,13.21L3.363,13.64L3.973,14.01L4.62,14.32L5.3,14.57L6.01,14.75L6.744,14.86L7.501,14.9L8.258,14.86L8.993,14.75L9.702,14.57L9.946,14.48L9.438,13.75L9.281,13.51L8.765,13.64L8.142,13.74L7.501,13.77L6.86,13.74L6.237,13.64L5.637,13.49L5.06,13.28L4.512,13.01L3.995,12.7L3.513,12.34L3.067,11.93L2.663,11.49L2.302,11.01L1.988,10.49L1.723,9.942L1.513,9.366L1.358,8.765L1.263,8.142L1.231,7.501L1.263,6.86L1.358,6.237L1.513,5.637L1.723,5.06L1.988,4.512L2.302,3.995L2.663,3.513L3.067,3.067L3.513,2.663L3.995,2.302L4.512,1.988L5.06,1.723L5.637,1.513L6.237,1.358L6.86,1.263L7.501,1.231L8.142,1.263L8.765,1.358L9.366,1.513L9.942,1.723L10.49,1.988L11.01,2.302L11.49,2.663L11.93,3.067L12.34,3.513L12.7,3.995L13.01,4.512L13.28,5.06L13.28,5.062L13.46,5.096L13.96,5.251L14.43,5.46L14.64,5.583L14.57,5.3L14.32,4.62L14.01,3.973L13.64,3.363L13.21,2.793L12.73,2.268L12.21,1.79L11.64,1.364L11.03,0.9934L10.38,0.6816L9.702,0.4328L8.993,0.2504L8.258,0.1383L7.501,0.1zz" fill-rule="evenodd" fill="#797979"/>
      <path d="M6.86,1.263L6.237,1.358L5.637,1.513L5.06,1.723L4.512,1.988L3.995,2.302L3.513,2.663L3.067,3.067L2.663,3.513L2.302,3.995L1.988,4.512L1.723,5.06L1.513,5.637L1.358,6.238L1.263,6.86L1.231,7.501L1.263,8.142L1.358,8.765L1.513,9.366L1.723,9.942L1.988,10.49L2.302,11.01L2.663,11.49L3.067,11.94L3.513,12.34L3.995,12.7L4.512,13.01L5.06,13.28L5.637,13.49L6.237,13.64L6.86,13.74L7.501,13.77L8.142,13.74L8.765,13.64L9.281,13.51L8.7,12.63L8.19,11.76L7.965,11.26L7.803,10.72L7.704,10.18L7.671,9.622L7.766,8.683L8.038,7.808L8.469,7.016L9.038,6.325L9.729,5.755L10.52,5.325L11.4,5.052L12.34,4.957L12.4,4.958L12.94,4.997L13.28,5.062L13.28,5.06L13.01,4.512L12.7,3.995L12.34,3.513L11.93,3.067L11.49,2.663L11.01,2.302L10.49,1.988L9.942,1.723L9.366,1.513L8.765,1.358L8.142,1.263L7.501,1.231zz" fill-rule="evenodd" fill="#FFFFFF"/>
      <path d="M6.941,3.041L6.868,3.171L6.73,3.642L6.499,5.114L6.346,6.707L6.289,7.713L6.308,8.126L6.402,8.415L6.615,8.586L6.994,8.643L7.363,8.579L7.556,8.387L7.629,8.076L7.642,7.652L7.604,6.656L7.485,5.085L7.289,3.634L7.163,3.169L7.092,3.04L7.017,2.995zz" fill-rule="evenodd" fill="#217346"/>
      <path d="M7.032,7.368L6.69,7.463L6.575,7.552L6.494,7.677L6.43,8.057L6.472,8.429L6.626,8.629L6.926,8.71L7.407,8.727L7.763,8.708L7.766,8.683L8.038,7.808L8.272,7.377L7.532,7.349zz" fill-rule="evenodd" fill="#217346"/>
      <path d="M11.18,3.143L10.17,4.149L10.1,4.308L10.17,4.468L10.24,4.541L10.4,4.605L10.56,4.541L11.57,3.535L11.63,3.376L11.57,3.216L11.49,3.143L11.34,3.077zM3.58,3.209L3.506,3.282L3.44,3.442L3.506,3.602L4.513,4.608L4.672,4.671L4.831,4.608L4.905,4.534L4.971,4.375L4.905,4.215L3.899,3.209L3.739,3.143zM1.966,7.166L1.9,7.326L1.9,7.474L1.966,7.634L2.126,7.7L3.574,7.7L3.734,7.634L3.8,7.474L3.8,7.326L3.734,7.166L3.574,7.1L2.126,7.1zM4.477,9.936L3.471,10.94L3.405,11.1L3.471,11.26L3.545,11.33L3.704,11.4L3.864,11.33L4.87,10.33L4.936,10.17L4.87,10.01L4.796,9.936L4.637,9.87zM7.366,11.07L7.3,11.23L7.3,12.67L7.366,12.83L7.526,12.9L7.674,12.9L7.834,12.83L7.9,12.67L7.9,11.23L7.834,11.07L7.674,11L7.526,11zz" fill="#B4B4B5"/>
    </g>
    <g id="overlay">
      <path d="M12.3876,5.9578c-2.0478,-0.0285,-3.7168,1.623,-3.7168,3.6642c0,0.6059,0.1471,1.1775,0.4074,1.681c0.5174,1.0005,2.5047,3.7927,3.0925,4.6124c0.0809,0.1128,0.2484,0.1128,0.3294,0c0.5878,-0.8197,2.5751,-3.6118,3.0925,-4.6123c0.2623,-0.5073,0.4096,-1.0837,0.4074,-1.6947C15.9927,7.6196,14.3762,5.9855,12.3876,5.9578zM12.3354,10.9668c-0.7427,0,-1.3448,-0.6021,-1.3448,-1.3448c0,-0.7427,0.6021,-1.3448,1.3448,-1.3448c0.7427,0,1.3448,0.6021,1.3448,1.3448C13.6802,10.3647,13.0781,10.9668,12.3354,10.9668z" fill="#217346"/>
    </g>
  </g>
</svg>
