<svg version="1.1" id="Layer_1" xmlns="http://www.w3.org/2000/svg" xmlns:xlink="http://www.w3.org/1999/xlink" x="0px" y="0px" width="32px" height="32px" viewBox="0 0 32 32" enable-background="new 0 0 32 32" xml:space="preserve">
  <g id="main" style="opacity: 0.1">
    <g id="icon">
      <path d="M13.47,0.07754L11.98,0.3047L10.54,0.6744L9.162,1.179L7.851,1.811L6.614,2.562L5.459,3.426L4.394,4.394L3.426,5.459L2.562,6.614L1.811,7.851L1.179,9.162L0.6744,10.54L0.3047,11.98L0.07754,13.47L0,15L0.07754,16.53L0.3047,18.02L0.6744,19.46L1.179,20.84L1.811,22.15L2.562,23.39L3.426,24.54L4.394,25.61L5.459,26.58L6.614,27.44L7.851,28.19L9.162,28.82L10.54,29.33L11.98,29.7L13.47,29.92L15,30L16.53,29.92L18.02,29.7L19.46,29.33L20.84,28.82L22.15,28.19L22.3,28.1L21.44,26.79L21.4,26.81L20.23,27.38L18.99,27.83L17.71,28.16L16.37,28.36L15,28.43L13.63,28.36L12.29,28.16L11.01,27.83L9.774,27.38L8.6,26.81L7.493,26.14L6.459,25.36L5.505,24.5L4.638,23.54L3.865,22.51L3.193,21.4L2.627,20.23L2.176,18.99L1.845,17.71L1.641,16.37L1.572,15L1.641,13.63L1.845,12.29L2.176,11.01L2.627,9.774L3.193,8.6L3.865,7.493L4.638,6.459L5.505,5.505L6.459,4.638L7.493,3.865L8.6,3.193L9.774,2.627L11.01,2.176L12.29,1.845L13.63,1.641L15,1.572L16.37,1.641L17.71,1.845L18.99,2.176L20.23,2.627L21.4,3.193L22.51,3.865L23.54,4.638L24.5,5.505L25.36,6.459L26.14,7.493L26.81,8.6L27.38,9.774L27.83,11.01L28.16,12.29L28.36,13.63L28.43,15L28.38,15.97L28.95,16.17L29.68,16.54L29.9,16.68L29.92,16.53L30,15L29.92,13.47L29.7,11.98L29.33,10.54L28.82,9.162L28.19,7.851L27.44,6.614L26.58,5.459L25.61,4.394L24.54,3.426L23.39,2.562L22.15,1.811L20.84,1.179L19.46,0.6744L18.02,0.3047L16.53,0.07754L15,0zz" fill-rule="evenodd" fill="#797979"/>
      <path d="M13.63,1.641L12.29,1.845L11.01,2.176L9.774,2.627L8.6,3.193L7.493,3.865L6.459,4.638L5.505,5.505L4.638,6.459L3.865,7.493L3.193,8.6L2.627,9.774L2.176,11.01L1.845,12.29L1.641,13.63L1.572,15L1.641,16.37L1.845,17.71L2.176,18.99L2.627,20.23L3.193,21.4L3.865,22.51L4.638,23.54L5.505,24.5L6.459,25.36L7.493,26.14L8.6,26.81L9.774,27.38L11.01,27.83L12.29,28.16L13.63,28.36L15,28.43L16.37,28.36L17.71,28.16L18.99,27.83L20.23,27.38L21.4,26.81L21.44,26.79L21.36,26.67L20.53,25.28L20.22,24.57L19.99,23.81L19.85,23.04L19.8,22.25L19.83,21.58L19.93,20.93L20.1,20.29L20.32,19.69L20.6,19.11L20.93,18.57L21.31,18.06L21.74,17.59L22.2,17.16L22.71,16.78L23.26,16.45L23.83,16.17L24.44,15.95L25.07,15.79L25.73,15.69L26.4,15.65L26.49,15.66L27.35,15.72L28.17,15.9L28.38,15.97L28.43,15L28.36,13.63L28.16,12.29L27.83,11.01L27.38,9.774L26.81,8.6L26.14,7.493L25.36,6.459L24.5,5.505L23.54,4.638L22.51,3.865L21.4,3.193L20.23,2.627L18.99,2.176L17.71,1.845L16.37,1.641L15,1.572zz" fill-rule="evenodd" fill="#FFFFFF"/>
      <path d="M14.86,3.213L14.73,3.534L14.47,4.689L14.25,6.343L14.05,8.274L13.77,12.08L13.67,14.32L13.7,15.08L13.77,15.37L13.88,15.61L14.04,15.79L14.26,15.92L14.57,16L14.96,16.02L15.34,15.99L15.63,15.9L15.84,15.76L15.98,15.55L16.07,15.3L16.12,14.99L16.14,14.21L16.07,11.98L15.86,8.22L15.69,6.31L15.5,4.674L15.27,3.531L15.14,3.213L15,3.1zz" fill-rule="evenodd" fill="#217346"/>
      <path d="M15.1,13.72L14.73,13.78L14.44,13.89L14.21,14.05L14.05,14.28L13.96,14.58L13.93,14.97L13.95,15.36L14.01,15.66L14.13,15.87L14.31,16.02L14.56,16.12L14.9,16.17L15.84,16.2L18.05,16.12L21.44,15.9L23.12,15.73L24.54,15.53L25.53,15.29L25.8,15.16L25.9,15.02L25.81,14.88L25.54,14.75L24.58,14.5L23.2,14.27L21.56,14.07L18.26,13.79L16.08,13.68zz" fill-rule="evenodd" fill="#217346"/>
      <path d="M22.88,6.213L22.73,6.316L20.6,8.449L20.49,8.607L20.46,8.787L20.49,8.967L20.6,9.125L20.75,9.281L20.91,9.382L21.09,9.416L21.27,9.382L21.43,9.281L23.56,7.148L23.67,6.99L23.7,6.811L23.67,6.63L23.56,6.472L23.4,6.316L23.25,6.213L23.07,6.177zM6.78,6.353L6.626,6.457L6.47,6.613L6.365,6.771L6.33,6.951L6.365,7.131L6.47,7.289L8.603,9.422L8.759,9.523L8.941,9.557L9.123,9.523L9.279,9.422L9.435,9.266L9.54,9.108L9.575,8.928L9.54,8.748L9.435,8.589L7.302,6.457L7.147,6.353L6.964,6.317zM3.292,14.54L3.14,14.64L3.038,14.79L3,14.98L3,15.12L3.038,15.31L3.14,15.46L3.292,15.56L3.478,15.6L6.522,15.6L6.708,15.56L6.86,15.46L6.963,15.31L7,15.12L7,14.98L6.963,14.79L6.86,14.64L6.708,14.54L6.522,14.5L3.478,14.5zM8.683,20.61L8.528,20.72L6.395,22.85L6.29,23.01L6.255,23.19L6.29,23.37L6.395,23.53L6.551,23.68L6.707,23.78L6.889,23.82L7.071,23.78L7.228,23.68L9.361,21.55L9.465,21.39L9.5,21.21L9.465,21.03L9.361,20.87L9.204,20.72L9.05,20.61L8.866,20.58zM14.69,23.04L14.54,23.14L14.44,23.29L14.4,23.48L14.4,26.52L14.44,26.71L14.54,26.86L14.69,26.96L14.88,27L15.02,27L15.21,26.96L15.36,26.86L15.46,26.71L15.5,26.52L15.5,23.48L15.46,23.29L15.36,23.14L15.21,23.04L15.02,23L14.88,23zz" fill="#B4B4B5"/>
    </g>
    <g id="overlay">
      <path d="M26.4801,16.655c-3.1292,-0.0435,-5.6794,2.48,-5.6794,5.5991c0,0.9259,0.2247,1.7992,0.6225,2.5686c0.7906,1.5289,3.8273,5.7955,4.7255,7.048c0.1237,0.1724,0.3796,0.1724,0.5033,0c0.8982,-1.2525,3.9348,-5.5191,4.7255,-7.0479c0.4009,-0.7751,0.626,-1.6559,0.6226,-2.5895C31.9889,19.1944,29.5187,16.6973,26.4801,16.655zM26.4003,24.3091c-1.1349,0,-2.0549,-0.92,-2.0549,-2.0549c0,-1.1349,0.92,-2.0549,2.0549,-2.0549c1.1349,0,2.0549,0.92,2.0549,2.0549C28.4552,23.389,27.5352,24.3091,26.4003,24.3091z" fill="#217346"/>
    </g>
  </g>
</svg>